<svg width="469" height="322" viewBox="0 0 469 322" fill="none" xmlns="http://www.w3.org/2000/svg">
<g style="mix-blend-mode:luminosity">
<path d="M331.379 221.21C325.807 227.634 319.678 233.435 312.992 238.613C306.306 243.857 299.128 248.347 291.459 252.084C283.855 255.82 275.956 258.737 267.762 260.835C259.503 262.998 251.145 264.276 242.689 264.669C234.234 265.128 225.81 264.702 217.42 263.391C209.029 262.08 200.836 259.983 192.839 257.098C184.907 254.149 177.336 250.412 170.125 245.889C162.915 241.432 156.229 236.253 150.067 230.354C143.905 224.52 138.399 218.129 133.548 211.18C131.653 208.465 129.872 205.685 128.207 202.84L130.334 201.601L236.692 139.6L345.01 201.831C341.067 208.748 336.523 215.208 331.379 221.21Z" fill="#E1E0DF" stroke="white" stroke-width="6" stroke-miterlimit="1.5" stroke-linecap="round" stroke-linejoin="round"/>
<path d="M112.108 152.278C111.452 148.083 111.124 143.855 111.124 139.594C111.124 135.399 111.452 131.204 112.108 127.008C112.96 118.552 114.664 110.26 117.221 102.132C119.712 94.0694 123.022 86.3017 127.151 78.829C131.281 71.4218 136.099 64.5062 141.605 58.0823C147.177 51.6584 153.306 45.8244 159.992 40.5804C166.678 35.4019 173.856 30.9445 181.525 27.2081C189.129 23.4718 197.028 20.5548 205.222 18.4572C213.481 16.294 221.839 15.0158 230.295 14.6225C232.296 14.5139 234.295 14.4549 236.293 14.4454V139.594L128.235 202.809C127.958 202.322 127.423 200.85 127.151 200.359C123.022 192.952 119.712 185.217 117.221 177.154C114.664 169.026 112.96 160.734 112.108 152.278Z" fill="#F3F2F1"/>
<path d="M236.293 14.1309V14.4454M236.293 14.4454V139.594L128.235 202.809C127.958 202.322 127.423 200.85 127.151 200.359C123.022 192.952 119.712 185.217 117.221 177.154C114.664 169.026 112.96 160.734 112.108 152.278C111.452 148.083 111.124 143.855 111.124 139.594C111.124 135.399 111.452 131.204 112.108 127.008C112.96 118.552 114.664 110.26 117.221 102.132C119.712 94.0694 123.022 86.3017 127.151 78.829C131.281 71.4218 136.099 64.5062 141.605 58.0823C147.177 51.6584 153.306 45.8244 159.992 40.5804C166.678 35.4019 173.856 30.9445 181.525 27.2081C189.129 23.4718 197.028 20.5548 205.222 18.4572C213.481 16.294 221.839 15.0158 230.295 14.6225C232.296 14.5139 234.295 14.4549 236.293 14.4454Z" stroke="white" stroke-width="6" stroke-miterlimit="1.5" stroke-linecap="round" stroke-linejoin="round"/>
<path d="M360.879 152.278C361.534 148.083 361.862 143.855 361.862 139.594C361.862 135.399 361.534 131.204 360.879 127.008C360.027 118.552 358.322 110.26 355.766 102.132C353.275 94.0694 349.965 86.3017 345.835 78.829C341.705 71.4218 336.888 64.5062 331.381 58.0823C325.81 51.6584 319.681 45.8244 312.994 40.5804C306.308 35.4019 299.131 30.9445 291.461 27.2081C283.857 23.4718 275.959 20.5548 267.765 18.4572C259.505 16.294 251.148 15.0158 242.692 14.6225C240.691 14.5139 238.691 14.4549 236.694 14.4454V139.594L345.012 201.826C345.289 201.339 345.564 200.85 345.835 200.359C349.965 192.952 353.275 185.217 355.766 177.154C358.322 169.026 360.027 160.734 360.879 152.278Z" fill="#E8E7E6"/>
<path d="M236.694 14.1309V14.4454M236.694 14.4454V139.594L345.012 201.826C345.289 201.339 345.564 200.85 345.835 200.359C349.965 192.952 353.275 185.217 355.766 177.154C358.322 169.026 360.027 160.734 360.879 152.278C361.534 148.083 361.862 143.855 361.862 139.594C361.862 135.399 361.534 131.204 360.879 127.008C360.027 118.552 358.322 110.26 355.766 102.132C353.275 94.0694 349.965 86.3017 345.835 78.829C341.705 71.4218 336.888 64.5062 331.381 58.0823C325.81 51.6584 319.681 45.8244 312.994 40.5804C306.308 35.4019 299.131 30.9445 291.461 27.2081C283.857 23.4718 275.959 20.5548 267.765 18.4572C259.505 16.294 251.148 15.0158 242.692 14.6225C240.691 14.5139 238.691 14.4549 236.694 14.4454Z" stroke="white" stroke-width="6" stroke-miterlimit="1.5" stroke-linecap="round" stroke-linejoin="round"/>
<path d="M378 112.825C378 109.608 380.608 107 383.825 107H438.68C441.897 107 444.505 109.608 444.505 112.825V112.825C444.505 116.042 441.897 118.65 438.68 118.65H383.825C380.608 118.65 378 116.042 378 112.825V112.825Z" fill="#F0EFEE"/>
<rect x="185" y="282.934" width="101.398" height="11.0915" rx="5.54577" fill="#F0EFEE"/>
<path d="M24.8687 112.546C24.8687 109.483 27.3516 107 30.4144 107H90.7209C93.7837 107 96.2667 109.483 96.2667 112.546V112.546C96.2667 115.609 93.7838 118.092 90.7209 118.092H30.4144C27.3516 118.092 24.8687 115.609 24.8687 112.546V112.546Z" fill="#F0EFEE"/>
<circle cx="17.4776" cy="17.4776" r="17.4776" transform="matrix(-1 0 0 1 199.176 98.1987)" fill="white"/>
<circle cx="17.4776" cy="17.4776" r="17.4776" transform="matrix(-1 0 0 1 253 176.747)" fill="white"/>
<circle cx="17.4776" cy="17.4776" r="17.4776" transform="matrix(-1 0 0 1 309.07 98.1987)" fill="white"/>
</g>
</svg>
