<svg width="464" height="382" viewBox="0 0 464 382" fill="none" xmlns="http://www.w3.org/2000/svg">
<g style="mix-blend-mode:luminosity">
<path d="M299.321 188.939C299.321 191.115 299.157 193.263 298.831 195.385C298.45 199.683 297.634 203.871 296.383 207.951C295.132 212.085 293.473 216.057 291.406 219.865C289.393 223.672 287.026 227.236 284.306 230.554C281.532 233.872 278.486 236.919 275.167 239.693C271.849 242.413 268.286 244.779 264.478 246.792C260.67 248.859 256.699 250.518 252.565 251.769C248.485 253.021 244.296 253.837 239.999 254.217C235.701 254.653 231.404 254.653 227.106 254.217C222.809 253.837 218.62 253.021 214.54 251.769C210.406 250.518 206.434 248.859 202.627 246.792C198.819 244.779 195.255 242.413 191.937 239.693C188.619 236.919 185.572 233.872 182.798 230.554C180.078 227.236 177.712 223.672 175.699 219.865C173.686 216.057 172.054 212.085 170.803 207.951C169.552 203.871 168.709 199.683 168.274 195.385C167.838 191.087 167.838 186.79 168.274 182.492C168.709 178.195 169.552 174.006 170.803 169.926C172.054 165.792 173.686 161.821 175.699 158.013C177.712 154.205 180.078 150.642 182.798 147.324C185.572 144.005 188.619 140.959 191.937 138.185C195.255 135.465 198.819 133.098 202.627 131.085C206.434 129.073 210.406 127.441 214.54 126.19C218.62 124.938 222.809 124.095 227.106 123.66C231.404 123.225 235.701 123.225 239.999 123.66C244.296 124.095 248.485 124.938 252.565 126.19C256.699 127.441 260.67 129.073 264.478 131.085C268.286 133.098 271.849 135.465 275.167 138.185C278.486 140.959 281.532 144.005 284.306 147.324C287.026 150.642 289.393 154.205 291.406 158.013C293.473 161.821 295.132 165.792 296.383 169.926C297.634 174.006 298.45 178.195 298.831 182.492C299.157 184.614 299.321 186.763 299.321 188.939Z" fill="#F0EFEE"/>
<path d="M191.818 69.9074C189.75 70.7234 187.683 71.5394 185.616 72.3554C181.536 73.9329 177.538 75.7281 173.621 77.7409C169.759 79.7536 166.005 81.984 162.361 84.4319C158.716 86.8255 155.18 89.4094 151.753 92.1838C150.012 93.5982 148.298 95.0125 146.612 96.4269M316.451 95.2291C314.764 93.8691 313.051 92.5091 311.31 91.1491C307.829 88.3748 304.238 85.7908 300.539 83.3973C296.894 81.0581 293.114 78.9094 289.197 76.951C285.28 74.9926 281.255 73.2519 277.12 71.7287C275.053 70.9127 272.986 70.1239 270.919 69.3624M99.5703 170.999C99.6694 170.925 99.7686 170.85 99.8677 170.776M107.444 165.205C107.281 166.239 107.091 167.3 106.873 168.388C106.547 170.455 106.247 172.549 105.975 174.671C105.703 176.792 105.486 178.914 105.323 181.036C105.159 183.157 105.051 185.279 104.996 187.4C104.942 189.576 104.942 191.806 104.996 194.091C105.051 196.376 105.187 198.661 105.404 200.945C105.567 203.176 105.812 205.433 106.139 207.718C106.411 209.949 106.764 212.179 107.199 214.409C107.417 215.552 107.635 216.694 107.852 217.836M356.988 216.099C357.151 215.011 357.314 213.95 357.477 212.917C357.858 210.795 358.184 208.674 358.456 206.552C358.728 204.485 358.946 202.391 359.109 200.269C359.272 198.148 359.381 195.999 359.436 193.823C359.49 191.701 359.49 189.498 359.436 187.213C359.381 184.929 359.245 182.644 359.028 180.359C358.864 178.074 358.62 175.817 358.293 173.586C358.021 171.302 357.668 169.044 357.232 166.814C357.015 165.726 356.797 164.611 356.58 163.468M147.917 286.044C149.658 287.404 151.399 288.791 153.14 290.206C156.567 292.98 160.13 295.537 163.829 297.876C167.528 300.215 171.336 302.364 175.253 304.322C179.17 306.281 183.195 308.049 187.329 309.626C189.397 310.388 191.464 311.149 193.531 311.911M272.599 311.381C274.666 310.565 276.733 309.776 278.8 309.015C282.88 307.383 286.851 305.561 290.714 303.548C294.63 301.535 298.411 299.332 302.056 296.938C305.7 294.49 309.236 291.879 312.664 289.105C314.404 287.691 316.118 286.276 317.804 284.862M99.8677 170.776C101.074 169.875 102.281 168.998 103.487 168.143C106.153 166.185 107.485 165.205 107.485 165.205C107.485 165.205 108.356 166.593 110.097 169.367C110.967 170.727 111.837 172.114 112.708 173.528L99.8677 170.776ZM187.247 78.5403C188.008 77.1259 188.77 75.6843 189.532 74.2156C191.055 71.3324 191.816 69.8908 191.816 69.8908C191.816 69.8908 190.32 69.2381 187.328 67.9325C185.86 67.2797 184.364 66.6269 182.841 65.9741L187.247 78.5403ZM306.692 95.6281C308.324 95.5737 309.955 95.5193 311.587 95.4649C314.851 95.3017 316.483 95.2201 316.483 95.2201C316.483 95.2201 316.293 93.6154 315.912 90.4058C315.749 88.7739 315.586 87.1419 315.423 85.5099L306.692 95.6281ZM351.733 207.785C352.604 209.145 353.474 210.532 354.344 211.946C356.085 214.721 356.955 216.108 356.955 216.108C356.955 216.108 358.261 215.129 360.872 213.17C362.232 212.191 363.565 211.239 364.871 210.314L351.733 207.785ZM157.709 285.67C156.077 285.724 154.445 285.779 152.813 285.833C149.549 285.996 147.917 286.078 147.917 286.078C147.917 286.078 148.108 287.683 148.489 290.892C148.652 292.524 148.815 294.156 148.978 295.788L157.709 285.67ZM277.168 302.724C276.407 304.193 275.645 305.635 274.883 307.049C273.36 309.932 272.599 311.374 272.599 311.374C272.599 311.374 274.095 312.026 277.087 313.332C278.555 313.985 280.051 314.665 281.575 315.372L277.168 302.724Z" stroke="#DEDDDC" stroke-width="4.90597" stroke-miterlimit="1.5" stroke-linecap="round" stroke-linejoin="round"/>
<circle cx="14.7225" cy="14.7225" r="14.7225" transform="matrix(-1 0 0 1 142.335 114.026)" fill="#F3F1EE"/>
<circle cx="14.7225" cy="14.7225" r="14.7225" transform="matrix(-1 0 0 1 352.295 238.152)" fill="#F3F2F1"/>
<circle cx="14.7225" cy="14.7225" r="14.7225" transform="matrix(-1 0 0 1 246.96 51.2559)" fill="#E8E7E6"/>
<circle cx="22.0849" cy="22.0849" r="22.0849" transform="matrix(-1 0 0 1 254.323 147.893)" fill="white"/>
<circle cx="14.7225" cy="14.7225" r="14.7225" transform="matrix(-1 0 0 1 355.4 114.018)" fill="#E1E0DF"/>
<circle cx="14.7225" cy="14.7225" r="14.7225" transform="matrix(-1 0 0 1 142.345 238.143)" fill="#E8E7E6"/>
<circle cx="14.7225" cy="14.7225" r="14.7225" transform="matrix(-1 0 0 1 246.96 300.521)" fill="#E8E7E6"/>
<path d="M362.474 253.455C362.474 250.418 364.937 247.955 367.974 247.955H424.006C427.044 247.955 429.506 250.418 429.506 253.455V253.455C429.506 256.493 427.044 258.955 424.006 258.955H367.974C364.937 258.955 362.474 256.493 362.474 253.455V253.455Z" fill="#F0EFEE"/>
<rect x="182" y="29.7344" width="100.561" height="11" rx="5.5" fill="#F0EFEE"/>
<path d="M102.58 129.339C102.58 126.301 100.118 123.839 97.0801 123.839H41.1455C38.1079 123.839 35.6455 126.301 35.6455 129.339V129.339C35.6455 132.376 38.1079 134.839 41.1455 134.839H97.0801C100.118 134.839 102.58 132.376 102.58 129.339V129.339Z" fill="#F0EFEE"/>
<rect x="197" y="340" width="70.2682" height="11" rx="5.5" fill="#F0EFEE"/>
<rect x="364.886" y="123.878" width="70.2682" height="11" rx="5.5" fill="#F0EFEE"/>
<rect x="32.0706" y="247.955" width="70.2682" height="11" rx="5.5" fill="#F0EFEE"/>
<rect x="187.371" y="202.373" width="89.7158" height="9.81366" rx="4.90683" fill="white" fill-opacity="0.5"/>
<path d="M198.398 227.129C198.398 224.419 200.595 222.222 203.305 222.222H261.153C263.862 222.222 266.059 224.419 266.059 227.129V227.129C266.059 229.839 263.863 232.036 261.153 232.036H203.305C200.595 232.036 198.398 229.839 198.398 227.129V227.129Z" fill="white" fill-opacity="0.5"/>
</g>
</svg>
