<svg width="476" height="299" viewBox="0 0 476 299" fill="none" xmlns="http://www.w3.org/2000/svg">
<g style="mix-blend-mode:luminosity">
<path fill-rule="evenodd" clip-rule="evenodd" d="M177.638 268.299C172.424 268.299 169.172 262.654 171.781 258.139C174.555 253.337 177.33 248.535 180.104 243.733C186.056 233.432 190.136 226.37 192.344 222.549C193.554 220.454 195.77 219.167 198.189 219.167C209.89 219.167 247.991 219.167 312.489 219.167C376.987 219.167 415.087 219.167 426.789 219.167C429.208 219.167 431.423 220.454 432.633 222.549C434.842 226.37 438.922 233.432 444.873 243.733C448.24 249.588 451.004 254.396 453.167 258.157C455.763 262.672 452.507 268.299 447.299 268.299C427.497 268.299 382.561 268.299 312.489 268.299C242.41 268.299 197.46 268.299 177.638 268.299Z" fill="#E1E0DF"/>
<path fill-rule="evenodd" clip-rule="evenodd" d="M210.717 210.979C205.503 210.979 202.267 205.333 204.876 200.819C207.65 196.016 210.425 191.214 213.199 186.412C219.151 176.111 223.231 169.05 225.439 165.228C226.649 163.133 228.872 161.846 231.291 161.846C240.834 161.846 267.899 161.846 312.488 161.846C357.076 161.846 384.141 161.846 393.684 161.846C396.103 161.846 398.326 163.133 399.536 165.228C401.744 169.05 405.824 176.111 411.776 186.412C415.155 192.261 417.93 197.065 420.103 200.824C422.711 205.339 419.472 210.979 414.258 210.979C397.762 210.979 363.838 210.979 312.488 210.979C261.137 210.979 227.213 210.979 210.717 210.979Z" fill="#EEEDEC"/>
<path fill-rule="evenodd" clip-rule="evenodd" d="M243.82 153.658C238.606 153.658 235.362 148.013 237.97 143.498C240.745 138.696 243.519 133.894 246.294 129.092C252.245 118.791 256.326 111.729 258.534 107.907C259.744 105.813 261.968 104.526 264.387 104.526C271.28 104.526 287.313 104.526 312.486 104.526C337.659 104.526 353.692 104.526 360.585 104.526C363.004 104.526 365.228 105.813 366.438 107.907C368.646 111.729 372.726 118.791 378.678 129.092C382.057 134.94 384.833 139.744 387.005 143.504C389.614 148.019 386.366 153.658 381.151 153.658C368.502 153.658 345.613 153.658 312.486 153.658C279.358 153.658 256.47 153.658 243.82 153.658Z" fill="#F3F2F1"/>
<path fill-rule="evenodd" clip-rule="evenodd" d="M276.914 96.3356C271.702 96.3356 268.447 90.6951 271.05 86.1804C276.969 75.9176 282.887 65.6547 288.805 55.3919C296.732 41.6857 302.668 31.4207 306.615 24.5969C309.225 20.0847 315.737 20.089 318.341 24.6045C322.276 31.4283 328.194 41.6908 336.095 55.3919C344.017 69.0903 349.952 79.3514 353.898 86.1753C356.509 90.69 353.252 96.3356 348.037 96.3356C340.156 96.3356 328.305 96.3356 312.484 96.3356C296.652 96.3356 284.796 96.3356 276.914 96.3356Z" fill="#F3F2F1"/>
<path d="M107.749 71.7706H266.182M266.182 71.7706C266.182 71.7706 265.5 72.453 264.135 73.8178C263.452 74.5002 262.77 75.1826 262.088 75.865V67.6763C262.77 68.3587 263.452 69.0411 264.135 69.7235C265.5 71.0882 266.182 71.7706 266.182 71.7706ZM107.749 129.092H233.086M233.086 129.092C233.086 129.092 232.403 129.774 231.039 131.139C230.356 131.822 229.674 132.504 228.992 133.186V124.998C229.674 125.68 230.356 126.362 231.039 127.045C232.403 128.41 233.086 129.092 233.086 129.092ZM107.749 186.412H199.99M199.99 186.412C199.99 186.412 199.307 187.095 197.943 188.459C197.26 189.142 196.578 189.824 195.895 190.507L195.964 182.318C196.646 183 197.306 183.683 197.943 184.365C199.307 185.73 199.99 186.412 199.99 186.412ZM107.749 243.735H166.894M166.894 243.735C166.894 243.735 166.211 244.417 164.846 245.782C164.164 246.465 163.482 247.147 162.799 247.829V239.641C163.482 240.323 164.164 241.005 164.846 241.688C166.211 243.053 166.894 243.735 166.894 243.735Z" stroke="#DEDDDC" stroke-width="5" stroke-miterlimit="1.5" stroke-linecap="round" stroke-linejoin="round"/>
<path d="M58.6182 243.733H90.6907" stroke="#F0EFEE" stroke-width="12.0423" stroke-miterlimit="1.5" stroke-linecap="round" stroke-linejoin="round"/>
<path d="M28.5237 186.412H90.6898" stroke="#F0EFEE" stroke-width="12.0423" stroke-miterlimit="1.5" stroke-linecap="round" stroke-linejoin="round"/>
<path d="M60.1194 129.092H90.6906" stroke="#F0EFEE" stroke-width="12.0423" stroke-miterlimit="1.5" stroke-linecap="round" stroke-linejoin="round"/>
<path d="M79.0901 71.7695H90.6908" stroke="#F0EFEE" stroke-width="12.0423" stroke-miterlimit="1.5" stroke-linecap="round" stroke-linejoin="round"/>
<path d="M312.469 202.789C321.514 202.789 328.847 195.457 328.847 186.412C328.847 177.367 321.514 170.034 312.469 170.034C303.424 170.034 296.092 177.367 296.092 186.412C296.092 195.457 303.424 202.789 312.469 202.789Z" fill="white"/>
<path d="M312.469 260.112C321.514 260.112 328.847 252.779 328.847 243.734C328.847 234.689 321.514 227.357 312.469 227.357C303.424 227.357 296.092 234.689 296.092 243.734C296.092 252.779 303.424 260.112 312.469 260.112Z" fill="white"/>
<path d="M312.469 145.469C321.514 145.469 328.847 138.136 328.847 129.091C328.847 120.046 321.514 112.714 312.469 112.714C303.424 112.714 296.092 120.046 296.092 129.091C296.092 138.136 303.424 145.469 312.469 145.469Z" fill="white"/>
<path d="M312.469 88.1475C321.514 88.1475 328.847 80.8151 328.847 71.77C328.847 62.725 321.514 55.3926 312.469 55.3926C303.424 55.3926 296.092 62.725 296.092 71.77C296.092 80.8151 303.424 88.1475 312.469 88.1475Z" fill="white"/>
</g>
</svg>
