<svg width="676" height="305" viewBox="0 0 676 305" fill="none" xmlns="http://www.w3.org/2000/svg">
<g style="mix-blend-mode:luminosity">
<path d="M260.231 127.578H241.929C237.491 127.578 233.234 129.341 230.096 132.479C226.957 135.618 225.194 139.874 225.194 144.313V150.622C225.194 155.06 223.431 159.317 220.293 162.455C217.155 165.593 212.898 167.356 208.46 167.356H192.457M413.02 127.578H431.322C435.761 127.578 440.017 129.341 443.155 132.479C446.294 135.618 448.057 139.874 448.057 144.313V150.622C448.057 155.06 449.82 159.317 452.958 162.455C456.097 165.593 460.353 167.356 464.792 167.356H480.795M260.231 95.1858H241.929C237.491 95.1858 233.234 93.4227 230.096 90.2843C226.957 87.146 225.194 82.8894 225.194 78.4511V72.1419C225.194 67.7036 223.431 63.4471 220.293 60.3087C217.155 57.1703 212.898 55.4072 208.46 55.4072H192.457M413.02 95.1858H431.322C435.761 95.1858 440.017 93.4227 443.155 90.2843C446.294 87.146 448.057 82.8894 448.057 78.4511V72.1419C448.057 67.7036 449.82 63.4471 452.958 60.3087C456.097 57.1703 460.353 55.4072 464.792 55.4072H480.795" stroke="#F2F1F0" stroke-width="5.39854" stroke-miterlimit="1.5" stroke-linecap="round" stroke-linejoin="round"/>
<path d="M280.223 54.1216H336.633C374.239 54.1216 393.763 54.261 395.204 54.5399C396.599 54.8189 397.9 55.3767 399.109 56.2134C400.318 57.0037 401.317 58.0031 402.107 59.2117C402.944 60.4203 403.502 61.7219 403.781 63.1165C404.06 64.5575 404.199 87.6476 404.199 110.332C404.199 132.971 404.06 187.065 403.781 188.506C403.502 189.9 402.944 191.202 402.107 192.411C401.317 193.619 400.318 194.619 399.109 195.409C397.9 196.246 396.599 196.803 395.204 197.082C394.132 197.29 383.046 197.42 361.946 197.473C354.692 197.492 346.254 197.501 336.633 197.501C328.212 197.501 320.699 197.494 314.091 197.48C291.19 197.431 279.18 197.299 278.062 197.082C276.667 196.803 275.365 196.246 274.157 195.409C272.948 194.619 271.949 193.619 271.158 192.411C270.322 191.202 269.764 189.9 269.485 188.506C269.206 187.065 269.067 132.971 269.067 110.332C269.067 87.6476 269.206 64.5575 269.485 63.1165C269.764 61.7219 270.322 60.4203 271.158 59.2117C271.949 58.0031 272.948 57.0037 274.157 56.2134C275.365 55.3767 276.667 54.8189 278.062 54.5399L280.223 54.1216Z" fill="#EBEAE9"/>
<rect opacity="0.5" x="291.837" y="125.816" width="90.2093" height="10.799" rx="5.39948" fill="white"/>
<path opacity="0.5" d="M302.864 153.27C302.864 150.288 305.281 147.871 308.263 147.871H365.619C368.601 147.871 371.019 150.288 371.019 153.27V153.27C371.019 156.252 368.601 158.67 365.619 158.67H308.263C305.281 158.67 302.864 156.252 302.864 153.27V153.27Z" fill="white"/>
<path d="M497.042 149.754H565.097C610.466 149.754 647.701 149.847 648.584 150.033C649.468 150.219 650.281 150.544 651.025 151.009C651.769 151.52 652.396 152.171 652.907 152.961C653.419 153.705 653.767 154.519 653.953 155.402C654.139 156.285 654.232 160.538 654.232 168.162C654.232 175.786 654.139 180.039 653.953 180.922C653.767 181.805 653.419 182.619 652.907 183.363C652.396 184.106 651.769 184.734 651.025 185.245C650.281 185.757 649.468 186.105 648.584 186.291C647.701 186.477 610.466 186.57 565.097 186.57C519.727 186.57 496.6 186.477 495.717 186.291C494.834 186.105 494.021 185.757 493.277 185.245C492.487 184.734 491.836 184.106 491.324 183.363C490.86 182.619 490.534 181.805 490.348 180.922C490.162 180.039 490.069 175.786 490.069 168.162C490.069 160.538 490.162 156.285 490.348 155.402C490.534 154.519 490.86 153.705 491.324 152.961C491.836 152.171 492.487 151.52 493.277 151.009C494.021 150.544 494.834 150.219 495.717 150.033L497.042 149.754Z" fill="#F3F2F1"/>
<path d="M42.3534 149.552H109.432C154.104 149.552 176.882 149.645 177.765 149.831C178.695 150.017 179.531 150.342 180.275 150.807C181.019 151.318 181.646 151.969 182.158 152.759C182.669 153.503 183.018 154.316 183.204 155.2C183.343 156.083 183.413 160.336 183.413 167.96C183.413 175.583 183.343 179.837 183.204 180.72C183.018 181.603 182.669 182.417 182.158 183.161C181.646 183.904 181.019 184.532 180.275 185.043C179.531 185.555 178.695 185.903 177.765 186.089C177.366 186.173 172.492 186.238 163.143 186.284C151.813 186.34 133.909 186.368 109.432 186.368C64.7128 186.368 41.9118 186.275 41.0286 186.089C40.1453 185.903 39.3319 185.555 38.5881 185.043C37.7978 184.532 37.1471 183.904 36.6357 183.161C36.1709 182.417 35.8455 181.603 35.6595 180.72C35.4736 179.837 35.3806 175.583 35.3806 167.96C35.3806 160.336 35.4736 156.083 35.6595 155.2C35.8455 154.316 36.1709 153.503 36.6357 152.759C37.1471 151.969 37.7978 151.318 38.5881 150.807C39.3319 150.342 40.1453 150.017 41.0286 149.831L42.3534 149.552Z" fill="#E9E8E7"/>
<path d="M497.301 36.8052H560.614C602.822 36.8052 624.368 36.8981 625.251 37.0841C626.134 37.27 626.948 37.5954 627.692 38.0603C628.435 38.5716 629.063 39.2224 629.574 40.0127C630.086 40.7564 630.434 41.5699 630.62 42.4531C630.806 43.3363 630.899 47.5897 630.899 55.2133C630.899 62.8369 630.806 67.0903 630.62 67.9735C630.434 68.8567 630.086 69.6702 629.574 70.414C629.063 71.2042 628.435 71.855 627.692 72.3664C626.948 72.8312 626.134 73.1566 625.251 73.3426C624.368 73.5285 602.822 73.6215 560.614 73.6215C518.405 73.6215 496.859 73.5285 495.976 73.3426C495.093 73.1566 494.279 72.8312 493.535 72.3664C492.745 71.855 492.094 71.2042 491.583 70.414C491.118 69.6702 490.793 68.8567 490.607 67.9735C490.421 67.0903 490.328 62.8369 490.328 55.2133C490.328 47.5897 490.421 43.3363 490.607 42.4531C490.793 41.5699 491.118 40.7564 491.583 40.0127C492.094 39.2224 492.745 38.5716 493.535 38.0603C494.279 37.5954 495.093 37.27 495.976 37.0841L497.301 36.8052Z" fill="#E8E7E6"/>
<path d="M28.4198 36.6436H122.087C158.067 36.6436 176.498 36.7365 177.381 36.9225C178.264 37.1084 179.078 37.4338 179.822 37.8987C180.565 38.41 181.193 39.0608 181.704 39.851C182.216 40.5948 182.564 41.4083 182.75 42.2915C182.936 43.1747 183.029 47.4281 183.029 55.0517C183.029 62.7218 182.936 66.9984 182.75 67.8816C182.564 68.7648 182.216 69.5783 181.704 70.3221C181.193 71.0659 180.565 71.6934 179.822 72.2048C179.078 72.7161 178.264 73.0647 177.381 73.2507C176.498 73.4366 158.067 73.5296 122.087 73.5296C86.1074 73.5296 27.9782 73.4366 27.095 73.2507C26.2118 73.0647 25.3983 72.7161 24.6545 72.2048C23.8643 71.6934 23.2135 71.0659 22.7021 70.3221C22.2373 69.5783 21.9119 68.7648 21.7259 67.8816C21.54 66.9984 21.447 62.7218 21.447 55.0517C21.447 47.4281 21.54 43.1747 21.7259 42.2915C21.9119 41.4083 22.2373 40.5948 22.7021 39.851C23.2135 39.0608 23.8643 38.41 24.6545 37.8987C25.3983 37.4338 26.2118 37.1084 27.095 36.9225L28.4198 36.6436Z" fill="#EEEDEC"/>
<rect x="527.013" y="88.6113" width="56.1438" height="7.71902" rx="3.85951" fill="#F0EFEE"/>
<rect x="531.423" y="197.953" width="70.7697" height="7.19931" rx="3.59965" fill="#F0EFEE"/>
<rect x="143.794" y="220.971" width="70.7697" height="7.19931" rx="3.59965" transform="rotate(-180 143.794 220.971)" fill="#F0EFEE"/>
<rect x="531.423" y="231.603" width="86.6026" height="7.19931" rx="3.59965" fill="#F0EFEE"/>
<rect x="143.794" y="96.0557" width="82.5799" height="7.71902" rx="3.85951" transform="rotate(180 143.794 96.0557)" fill="#F0EFEE"/>
<rect x="527.013" y="105.369" width="78.9617" height="7.71902" rx="3.85951" fill="#F0EFEE"/>
<rect x="531.423" y="215.089" width="42.0991" height="7.19931" rx="3.59965" fill="#F0EFEE"/>
<rect x="143.794" y="111.537" width="45.1382" height="7.71902" rx="3.85951" transform="rotate(180 143.794 111.537)" fill="#F0EFEE"/>
<rect x="143.794" y="203.814" width="42.0991" height="7.19931" rx="3.59965" transform="rotate(-180 143.794 203.814)" fill="#F0EFEE"/>
<g opacity="0.5">
<path d="M146.429 55.5255C146.429 52.5434 144.011 50.126 141.029 50.126H45.4951C42.5131 50.126 40.0957 52.5434 40.0957 55.5255V55.5255C40.0957 58.5075 42.5131 60.9249 45.4951 60.9249H141.029C144.011 60.9249 146.429 58.5075 146.429 55.5255V55.5255Z" fill="white"/>
<rect x="527.819" y="50.2427" width="90.2093" height="10.799" rx="5.39948" fill="white"/>
<rect width="98.7233" height="10.799" rx="5.39948" transform="matrix(-1 0 0 1 146.429 163.071)" fill="white"/>
<path d="M527.821 168.468C527.821 165.486 530.238 163.068 533.22 163.068H633.048C636.03 163.068 638.447 165.486 638.447 168.468V168.468C638.447 171.45 636.03 173.867 633.048 173.867H533.22C530.238 173.867 527.821 171.45 527.821 168.468V168.468Z" fill="white"/>
</g>
<circle cx="16.2006" cy="16.2006" r="16.2006" transform="matrix(-1 0 0 1 353.922 78.9248)" fill="white"/>
<circle cx="10.8004" cy="10.8004" r="10.8004" transform="matrix(-1 0 0 1 174.98 44.3628)" fill="white"/>
<circle cx="510.094" cy="55.1632" r="10.8004" fill="white"/>
<circle cx="10.8004" cy="10.8004" r="10.8004" transform="matrix(-1 0 0 1 174.98 157.317)" fill="white"/>
<circle cx="510.094" cy="168.117" r="10.8004" fill="white"/>
</g>
</svg>
