<svg width="329" height="535" viewBox="0 0 329 535" fill="none" xmlns="http://www.w3.org/2000/svg">
<path fill-rule="evenodd" clip-rule="evenodd" d="M108.859 323.257C104.2 350.143 128.088 372.515 155.374 372.515C182.66 372.515 202.009 349.052 213.441 324.276C215.642 319.508 218.364 314.877 221.719 310.404C233.011 295.347 245.951 280.996 260.538 267.351C271.83 256.529 282.653 245.471 293.004 234.178C303.356 222.415 311.825 209.711 318.413 196.065C325.471 181.949 329 165.951 329 148.071C329 123.133 322.648 99.6064 309.943 77.4914C297.239 54.9059 278.182 36.5552 252.774 22.4392C227.836 7.85276 197.016 0.559509 160.314 0.559509C130.2 0.559509 102.91 6.20589 78.4419 17.4986C54.4448 28.7914 34.6825 44.3189 19.155 64.0812C13.0842 72.0491 7.89312 80.5523 3.58162 89.591C-7.57965 112.99 9.50519 138.106 34.6447 144.436L40.3426 145.871C66.113 152.36 91.0126 132.391 111.614 115.604C124.789 104.782 140.082 99.3711 157.491 99.3711C171.137 99.3711 182.429 101.724 191.369 106.429C200.78 110.664 207.838 116.781 212.543 124.78C217.249 132.308 219.601 141.013 219.601 150.894C219.601 165.481 214.19 178.42 203.368 189.713L166.667 226.415C156.785 236.296 147.14 247.353 137.729 259.587C128.318 271.821 120.554 285.937 114.438 301.935C111.887 308.948 110.105 316.066 108.859 323.257ZM103.145 481.913C103.145 511.148 126.845 534.848 156.08 534.848C185.315 534.848 209.014 511.148 209.014 481.913C209.014 452.678 185.315 428.978 156.08 428.978C126.845 428.978 103.145 452.678 103.145 481.913Z" fill="#EDECEB"/>
</svg>
