<svg width="783" height="628" viewBox="0 0 783 628" fill="none" xmlns="http://www.w3.org/2000/svg">
<g opacity="0.04">
<path d="M405.343 8.02964C398.884 -2.2221 383.938 -2.22214 377.478 8.02966L300.817 129.702C293.908 140.668 301.788 154.947 314.749 154.947H468.073C481.034 154.947 488.914 140.668 482.005 129.702L405.343 8.02964Z" fill="#F99539"/>
<path d="M264.5 201.765C258.844 201.765 253.583 204.668 250.568 209.454L201.538 287.271C194.629 298.237 202.509 312.517 215.47 312.517H567.352C580.313 312.517 588.194 298.237 581.284 287.271L532.254 209.454C529.239 204.668 523.978 201.765 518.322 201.765H264.5Z" fill="#F99539"/>
<path d="M165.221 359.334C159.565 359.334 154.304 362.237 151.289 367.023L102.26 444.839C95.3505 455.805 103.231 470.084 116.192 470.084H666.631C679.591 470.084 687.472 455.804 680.563 444.839L631.534 367.023C628.518 362.237 623.258 359.334 617.601 359.334H165.221Z" fill="#F99539"/>
<path d="M65.9429 516.902C60.2865 516.902 55.026 519.805 52.0107 524.591L2.97675 602.414C-3.93235 613.38 3.94834 627.659 16.909 627.659H765.914C778.875 627.659 786.755 613.38 779.846 602.414L730.812 524.591C727.797 519.805 722.536 516.902 716.88 516.902H65.9429Z" fill="#F99539"/>
</g>
</svg>
