<svg width="590" height="617" viewBox="0 0 590 617" fill="none" xmlns="http://www.w3.org/2000/svg">
<g opacity="0.04">
<path d="M309.956 203.779C309.956 183.07 326.744 166.281 347.454 166.281H397.452C418.162 166.281 434.95 183.07 434.95 203.779L434.95 578.76C434.95 599.47 418.162 616.258 397.452 616.258L347.454 616.258C326.744 616.258 309.956 599.47 309.956 578.76L309.956 203.779Z" fill="#17AEE1"/>
<path d="M155.148 353.772C155.148 333.062 171.936 316.274 192.646 316.274H242.644C263.354 316.274 280.142 333.062 280.142 353.772L280.142 578.761C280.142 599.471 263.354 616.259 242.644 616.259H192.646C171.936 616.259 155.148 599.471 155.148 578.761L155.148 353.772Z" fill="#17AEE1"/>
<path d="M37.8382 466.266C17.1286 466.266 0.340088 483.054 0.340088 503.764L0.340088 578.76C0.340088 599.47 17.1286 616.258 37.8382 616.258H87.8357C108.546 616.258 125.334 599.47 125.334 578.76L125.334 503.764C125.334 483.054 108.546 466.266 87.8357 466.266H37.8382Z" fill="#17AEE1"/>
<path d="M464.65 37.982C464.65 17.2724 481.438 0.483891 502.148 0.483891L552.145 0.483891C572.856 0.483891 589.644 17.2724 589.644 37.982L589.644 578.76C589.644 599.47 572.856 616.258 552.145 616.258H502.148C481.438 616.258 464.65 599.47 464.65 578.76L464.65 37.982Z" fill="#17AEE1"/>
</g>
</svg>
