<svg width="676" height="676" viewBox="0 0 676 676" fill="none" xmlns="http://www.w3.org/2000/svg">
<g opacity="0.05">
<path fill-rule="evenodd" clip-rule="evenodd" d="M338.408 590.535C477.795 590.535 590.791 477.539 590.791 338.152C590.791 198.765 477.795 85.7689 338.408 85.7689C199.021 85.7689 86.0253 198.765 86.0253 338.152C86.0253 477.539 199.021 590.535 338.408 590.535ZM338.408 675.72C524.842 675.72 675.976 524.585 675.976 338.152C675.976 151.718 524.842 0.583984 338.408 0.583984C151.975 0.583984 0.840393 151.718 0.840393 338.152C0.840393 524.585 151.975 675.72 338.408 675.72Z" fill="#000000"/>
<path fill-rule="evenodd" clip-rule="evenodd" d="M338.408 426.418C387.156 426.418 426.674 386.9 426.674 338.152C426.674 289.404 387.156 249.886 338.408 249.886C289.66 249.886 250.142 289.404 250.142 338.152C250.142 386.9 289.66 426.418 338.408 426.418ZM338.408 511.603C434.202 511.603 511.859 433.947 511.859 338.152C511.859 242.358 434.202 164.701 338.408 164.701C242.614 164.701 164.957 242.358 164.957 338.152C164.957 433.947 242.614 511.603 338.408 511.603Z" fill="#000000"/>
</g>
</svg>
