<svg fill="none" height="37" viewBox="0 0 37 37" width="37" xmlns="http://www.w3.org/2000/svg" xmlns:xlink="http://www.w3.org/1999/xlink"><clipPath id="a"><path d="m.14502.221191h36v36h-36z"/></clipPath><g clip-path="url(#a)" stroke="#FFFFFF" stroke-linecap="round" stroke-linejoin="round" stroke-width="1.2"><path d="m26.1957 8.70377-8.0505 1.91703-8.0505-1.91703.7365-2.361c.0203-.36705.133-.72304.3276-1.03491.1946-.31188.4649-.56954.7857-.74908.3207-.17955.6817-.27516 1.0493-.27796.3676-.00279.7299.08731 1.0534.26195l1.296.576c1.8051.68546 3.7989.68546 5.604 0l1.296-.576c.3235-.17464.6859-.26474 1.0535-.26195.3676.0028.7285.09841 1.0493.27796.3208.17954.591.4372.7856.74908.1946.31187.3073.66786.3276 1.03491z"/><path d="m14.2361 4.63289c.1262-.96573.5859-1.85699 1.2998-2.51958.7138-.6626 1.6367-1.05485 2.6092-1.10892.9724.05407 1.8954.44632 2.6092 1.10892.7138.66259 1.1736 1.55385 1.2998 2.51958"/><path d="m12.1406 27.9668 6.0045 6.423"/><path d="m18.145 34.3898 6.0045-6.423"/><path d="m20.395 20.812c-.6491.4868-1.4386.75-2.25.75s-1.6009-.2632-2.25-.75"/><path d="m21.145 16.687c.0742 0 .1467.022.2084.0632.0616.0412.1097.0998.1381.1683s.0358.1439.0213.2167c-.0145.0727-.0502.1395-.1026.192-.0525.0524-.1193.0881-.192.1026-.0728.0145-.1482.007-.2167-.0213-.0685-.0284-.1271-.0765-.1683-.1382-.0412-.0616-.0632-.1341-.0632-.2083 0-.0994.0395-.1948.1099-.2652.0703-.0703.1657-.1098.2651-.1098z" fill="#FFFFFF"/><path d="m15.145 16.687c.0742 0 .1467.022.2084.0632.0616.0412.1097.0998.1381.1683s.0358.1439.0213.2167c-.0145.0727-.0502.1395-.1026.192-.0525.0524-.1193.0881-.192.1026-.0728.0145-.1482.007-.2167-.0213-.0685-.0284-.1271-.0765-.1683-.1382-.0412-.0616-.0632-.1341-.0632-.2083 0-.0994.0395-.1948.1099-.2652.0703-.0703.1657-.1098.2651-.1098z" fill="#FFFFFF"/><path d="m24.895 14.812c-1.4085.0003-2.7886-.396-3.9824-1.1435-1.1938-.7476-2.1529-1.8162-2.7676-3.0835-.6147 1.2673-1.5738 2.3359-2.7675 3.0835-1.1938.7475-2.574 1.1438-3.9825 1.1435-.2505-.0007-.5008-.0142-.75-.0405v3.7875c0 1.9891.7902 3.8967 2.1967 5.3033 1.4065 1.4065 3.3142 2.1967 5.3033 2.1967s3.8968-.7902 5.3033-2.1967c1.4065-1.4066 2.1967-3.3142 2.1967-5.3033v-3.7875c-.2491.0263-.4995.0398-.75.0405z"/><path d="m10.1786 8.72168c-1.63812 1.90202-2.53737 4.32982-2.53349 6.84002v3.6975c0 3.0705-1.1025 4.527-3.0885 6.84-.07434.0864-.12799.1887-.15689.299-.02889.1103-.03225.2257-.00984.3375.02242.1118.07002.217.1392.3076s.15811.1643.26003.2154l4.458 2.3505"/><path d="m27.0431 29.6092 4.452-2.3505c.1019-.0511.1908-.1248.26-.2154s.1168-.1958.1392-.3076.0191-.2272-.0098-.3375-.0826-.2126-.1569-.299c-1.98-2.313-3.0825-3.7695-3.0825-6.84v-3.6975c.0039-2.5102-.8954-4.938-2.5335-6.84002"/><path d="m31.8986 35.4384c-1.2327-2.6047-3.1798-4.8058-5.6146-6.3472s-5.2572-2.3598-8.1389-2.3598-5.7041.8184-8.1389 2.3598c-2.43484 1.5414-4.38187 3.7425-5.6146 6.3472"/></g></svg>