<svg xmlns="http://www.w3.org/2000/svg" width="38" height="38" viewBox="0 0 38 38" fill="none">
  <path d="M21.5823 20.2729C20.92 20.7697 20.1143 21.0383 19.2864 21.0383C18.4584 21.0383 17.6528 20.7697 16.9904 20.2729" stroke="#FFFFFF" stroke-width="1.14798" stroke-linecap="round" stroke-linejoin="round"/>
  <path d="M36.1229 36.3433V34.6504C36.1259 34.1838 36.0211 33.7228 35.8167 33.3033C35.6123 32.8838 35.3137 32.5172 34.9443 32.232C32.9086 30.68 28.0565 27.9248 19.2859 27.9248C10.5153 27.9248 5.67085 30.68 3.62745 32.232C3.25807 32.5172 2.95953 32.8838 2.75509 33.3033C2.55066 33.7228 2.44586 34.1838 2.44885 34.6504V36.3433" stroke="#FFFFFF" stroke-width="1.14798" stroke-linecap="round" stroke-linejoin="round"/>
  <path d="M22.3471 16.064C22.4228 16.064 22.4967 16.0864 22.5597 16.1285C22.6226 16.1705 22.6716 16.2303 22.7006 16.3002C22.7296 16.3701 22.7371 16.447 22.7224 16.5213C22.7076 16.5955 22.6712 16.6637 22.6177 16.7172C22.5641 16.7707 22.496 16.8072 22.4217 16.8219C22.3475 16.8367 22.2706 16.8291 22.2006 16.8002C22.1307 16.7712 22.071 16.7221 22.0289 16.6592C21.9869 16.5963 21.9644 16.5223 21.9644 16.4466C21.9644 16.3451 22.0047 16.2478 22.0765 16.176C22.1483 16.1043 22.2456 16.064 22.3471 16.064Z" fill="#FFFFFF" stroke="#FFFFFF" stroke-width="1.14798" stroke-linecap="round" stroke-linejoin="round"/>
  <path d="M16.2246 16.064C16.3003 16.064 16.3743 16.0864 16.4372 16.1285C16.5002 16.1705 16.5492 16.2303 16.5782 16.3002C16.6071 16.3701 16.6147 16.447 16.5999 16.5213C16.5852 16.5955 16.5487 16.6637 16.4952 16.7172C16.4417 16.7707 16.3735 16.8072 16.2993 16.8219C16.2251 16.8367 16.1481 16.8291 16.0782 16.8002C16.0083 16.7712 15.9485 16.7221 15.9065 16.6592C15.8644 16.5963 15.842 16.5223 15.842 16.4466C15.842 16.3451 15.8823 16.2478 15.9541 16.176C16.0258 16.1043 16.1232 16.064 16.2246 16.064Z" fill="#FFFFFF" stroke="#FFFFFF" stroke-width="1.14798" stroke-linecap="round" stroke-linejoin="round"/>
  <path d="M13.2951 28.4023C13.5805 29.7815 14.3327 31.0201 15.4248 31.9093C16.5169 32.7986 17.8822 33.2841 19.2906 33.2841C20.699 33.2841 22.0643 32.7986 23.1564 31.9093C24.2486 31.0201 25.0007 29.7815 25.2861 28.4023" stroke="#FFFFFF" stroke-width="1.14798" stroke-linecap="round" stroke-linejoin="round"/>
  <path d="M30.0032 36.3444V29.6265" stroke="#FFFFFF" stroke-width="1.14798" stroke-linecap="round" stroke-linejoin="round"/>
  <path d="M8.57123 36.3444V29.6265" stroke="#FFFFFF" stroke-width="1.14798" stroke-linecap="round" stroke-linejoin="round"/>
  <path d="M19.2872 27.9248V33.282" stroke="#FFFFFF" stroke-width="1.14798" stroke-linecap="round" stroke-linejoin="round"/>
  <path d="M26.9368 36.3441V34.8135H22.3448V36.3441" stroke="#FFFFFF" stroke-width="1.14798" stroke-linecap="round" stroke-linejoin="round"/>
  <path d="M11.6359 36.3452H16.2278" stroke="#FFFFFF" stroke-width="1.14798" stroke-linecap="round" stroke-linejoin="round"/>
  <path d="M27.8761 19.7072L31.5496 18.4826C31.7449 18.4176 31.925 18.3138 32.0792 18.1775C32.2334 18.0412 32.3585 17.8752 32.4471 17.6895C32.5357 17.5037 32.5859 17.302 32.5948 17.0964C32.6036 16.8908 32.5709 16.6855 32.4986 16.4928L31.2909 13.2785C31.1215 12.819 30.8431 12.4074 30.4798 12.079C30.1164 11.7505 29.6789 11.5151 29.2047 11.3927C25.9549 10.6341 22.6245 10.2753 19.2877 10.3243C15.9486 10.2722 12.6156 10.6284 9.36301 11.3851C8.88877 11.5074 8.45125 11.7429 8.08791 12.0713C7.72457 12.3997 7.44624 12.8113 7.27674 13.2708L6.06907 16.4852C5.99677 16.6778 5.96406 16.8831 5.97291 17.0887C5.98176 17.2943 6.03198 17.4961 6.12058 17.6818C6.20917 17.8676 6.33431 18.0336 6.48851 18.1698C6.64272 18.3061 6.82283 18.4099 7.01807 18.475L10.6993 19.6995" stroke="#FFFFFF" stroke-width="1.14798" stroke-linecap="round" stroke-linejoin="round"/>
  <path d="M10.2352 14.8667C13.1491 13.8725 16.2086 13.3722 19.2874 13.3865C22.3662 13.3722 25.4257 13.8725 28.3396 14.8667C28.5652 16.1847 28.5003 17.536 28.1493 18.8263C27.7984 20.1166 27.1699 21.3147 26.3078 22.3369C25.4457 23.3591 24.3708 24.1807 23.1582 24.7443C21.9456 25.3079 20.6246 25.5998 19.2874 25.5998C17.9502 25.5998 16.6292 25.3079 15.4166 24.7443C14.204 24.1807 13.1291 23.3591 12.267 22.3369C11.4049 21.3147 10.7765 20.1166 10.4255 18.8263C10.0746 17.536 10.0096 16.1847 10.2352 14.8667Z" stroke="#FFFFFF" stroke-width="1.14798" stroke-linecap="round" stroke-linejoin="round"/>
  <path d="M17.7548 6.4976C17.9338 6.26107 18.1651 6.06923 18.4307 5.93715C18.6963 5.80507 18.9889 5.73633 19.2855 5.73633C19.5821 5.73633 19.8746 5.80507 20.1402 5.93715C20.4058 6.06923 20.6371 6.26107 20.8161 6.4976" stroke="#FFFFFF" stroke-width="1.14798" stroke-linecap="round" stroke-linejoin="round"/>
  <path d="M10.1019 6.33008C9.12135 7.95616 8.59292 9.81463 8.57123 11.7133C8.81709 11.5672 9.08252 11.457 9.35951 11.3858C12.6126 10.629 15.9461 10.2727 19.2857 10.325C22.6248 10.2729 25.9577 10.6291 29.2104 11.3858C29.4881 11.4561 29.7542 11.5665 30.0002 11.7133C29.9785 9.81463 29.4501 7.95616 28.4695 6.33008" stroke="#FFFFFF" stroke-width="1.14798" stroke-linecap="round" stroke-linejoin="round"/>
  <path d="M27.0109 4.43252C26.0109 3.39081 24.8108 2.56196 23.4824 1.99576C22.1541 1.42956 20.7251 1.1377 19.2811 1.1377C17.8372 1.1377 16.4081 1.42956 15.0798 1.99576C13.7515 2.56196 12.5513 3.39081 11.5514 4.43252" stroke="#FFFFFF" stroke-width="1.14798" stroke-linecap="round" stroke-linejoin="round"/>
  <path d="M17.7568 6.49762C17.7568 7.5125 17.3536 8.48581 16.636 9.20343C15.9184 9.92106 14.9451 10.3242 13.9302 10.3242C12.9153 10.3242 11.942 9.92106 11.2244 9.20343C10.5067 8.48581 10.1036 7.5125 10.1036 6.49762C10.1036 4.38381 11.8164 4.20166 13.9302 4.20166C16.044 4.20166 17.7568 4.38381 17.7568 6.49762Z" stroke="#FFFFFF" stroke-width="1.14798" stroke-linecap="round" stroke-linejoin="round"/>
  <path d="M20.816 6.49762C20.816 7.5125 21.2192 8.48581 21.9368 9.20343C22.6545 9.92106 23.6278 10.3242 24.6426 10.3242C25.6575 10.3242 26.6308 9.92106 27.3485 9.20343C28.0661 8.48581 28.4692 7.5125 28.4692 6.49762C28.4692 4.38381 26.7565 4.20166 24.6426 4.20166C22.5288 4.20166 20.816 4.38381 20.816 6.49762Z" stroke="#FFFFFF" stroke-width="1.14798" stroke-linecap="round" stroke-linejoin="round"/>
  <path d="M8.57123 25.6298V18.9976" stroke="#FFFFFF" stroke-width="1.14798" stroke-linecap="round" stroke-linejoin="round"/>
  <path d="M30.0032 25.6298V18.9976" stroke="#FFFFFF" stroke-width="1.14798" stroke-linecap="round" stroke-linejoin="round"/>
</svg>